<svg width="48" height="48" viewBox="0 0 48 48" fill="none" xmlns="http://www.w3.org/2000/svg">
<g id="masks_FILL0_wght400_GRAD0_opsz24 1">
<path id="Vector" d="M24 36C22.7333 36 21.5083 35.825 20.325 35.475C19.1417 35.125 18.05 34.6167 17.05 33.95C15.5833 33.85 14.0833 33.5333 12.55 33C11.0167 32.4667 9.61667 31.5833 8.35 30.35C7.08333 29.1167 6.04167 27.5 5.225 25.5C4.40833 23.5 4 21 4 18V17C4 15.6 4.48333 14.4167 5.45 13.45C6.41667 12.4833 7.6 12 9 12C10.3 12 11.425 12.45 12.375 13.35C13.325 14.25 13.85 15.3333 13.95 16.6C14.8833 16.3333 15.7167 16 16.45 15.6C17.1833 15.2 17.9333 14.8167 18.7 14.45C19.4667 14.05 20.2667 13.7083 21.1 13.425C21.9333 13.1417 22.9 13 24 13C25.1333 13 26.1083 13.1417 26.925 13.425C27.7417 13.7083 28.5333 14.05 29.3 14.45C30.0333 14.8167 30.775 15.2 31.525 15.6C32.275 16 33.1167 16.3333 34.05 16.6C34.15 15.3 34.675 14.2083 35.625 13.325C36.575 12.4417 37.7 12 39 12C40.4 12 41.5833 12.4833 42.55 13.45C43.5167 14.4167 44 15.6 44 17V18C44 21 43.5917 23.5 42.775 25.5C41.9583 27.5 40.9167 29.1167 39.65 30.35C38.3833 31.5833 36.9833 32.4667 35.45 33C33.9167 33.5333 32.4167 33.85 30.95 33.95C29.95 34.6167 28.8583 35.125 27.675 35.475C26.4917 35.825 25.2667 36 24 36ZM13 29.95C12.3667 28.95 11.875 27.8583 11.525 26.675C11.175 25.4917 11 24.2667 11 23V17C11 16.4333 10.8083 15.9583 10.425 15.575C10.0417 15.1917 9.56667 15 9 15C8.43333 15 7.95833 15.1917 7.575 15.575C7.19167 15.9583 7 16.4333 7 17V18C7 21.6667 7.61667 24.4 8.85 26.2C10.0833 28 11.4667 29.25 13 29.95ZM24 33C26.7667 33 29.125 32.025 31.075 30.075C33.025 28.125 34 25.7667 34 23V19.7C32.8667 19.4333 31.875 19.1167 31.025 18.75C30.175 18.3833 29.4 17.9833 28.7 17.55C27.7667 16.9833 26.9417 16.5833 26.225 16.35C25.5083 16.1167 24.7667 16 24 16C23.2333 16 22.4917 16.1167 21.775 16.35C21.0583 16.5833 20.2333 16.9833 19.3 17.55C18.6 17.95 17.825 18.35 16.975 18.75C16.125 19.15 15.1333 19.4667 14 19.7V23C14 25.7667 14.975 28.125 16.925 30.075C18.875 32.025 21.2333 33 24 33ZM18 22.5C18.7333 22.3 19.3667 22.0583 19.9 21.775C20.4333 21.4917 20.9333 21.2167 21.4 20.95C21.8667 20.6833 22.2917 20.4583 22.675 20.275C23.0583 20.0917 23.5 20 24 20C24.5 20 24.9417 20.0917 25.325 20.275C25.7083 20.4583 26.1333 20.6833 26.6 20.95C27.0667 21.2167 27.5583 21.4917 28.075 21.775C28.5917 22.0583 29.2333 22.3 30 22.5V20.4C29.5 20.2333 29.0667 20.05 28.7 19.85L27.6 19.25C27.0667 18.9167 26.525 18.625 25.975 18.375C25.425 18.125 24.7667 18 24 18C23.2333 18 22.575 18.125 22.025 18.375C21.475 18.625 20.9167 18.9167 20.35 19.25L19.25 19.85C18.8833 20.05 18.4667 20.2333 18 20.4V22.5ZM35 29.95C36.5333 29.25 37.9167 28 39.15 26.2C40.3833 24.4 41 21.6667 41 18V17C41 16.4333 40.8083 15.9583 40.425 15.575C40.0417 15.1917 39.5667 15 39 15C38.4333 15 37.9583 15.1917 37.575 15.575C37.1917 15.9583 37 16.4333 37 17V23C37 24.2667 36.8333 25.4917 36.5 26.675C36.1667 27.8583 35.6667 28.95 35 29.95Z" fill="black"/>
</g>
</svg>
